<?xml version="1.0" encoding="utf-8"?>
<!-- Generator: Adobe Illustrator 23.0.1, SVG Export Plug-In . SVG Version: 6.00 Build 0)  -->
<svg version="1.1" id="Arrow_x5F_up_x5F_icon" xmlns="http://www.w3.org/2000/svg" xmlns:xlink="http://www.w3.org/1999/xlink"
	 x="0px" y="0px" viewBox="0 0 16 10" style="enable-background:new 0 0 16 10;" xml:space="preserve">
<style type="text/css">
	.st0{fill-rule:evenodd;clip-rule:evenodd;fill:#BBBBBB;}
	.st1{fill-rule:evenodd;clip-rule:evenodd;}
</style>
<g id="Arrow_x5F_up_x5F_icon">
	<g>
		<path id="arrow_7_" class="st0" d="M8.3,0.1l7.7,9.3C16,9.6,16,9.8,15.9,9.9C15.8,10,15.7,10,15.7,10H0.3C0.2,10,0,9.9,0,9.7
			c0-0.1,0-0.2,0.1-0.2l7.7-9.3C7.9,0,8.1,0,8.3,0.1C8.2,0.1,8.3,0.1,8.3,0.1z"/>
	</g>
	<g>
		<path id="arrow_6_" class="st1" d="M8.3,0.1l7.7,9.3C16,9.6,16,9.8,15.9,9.9C15.8,10,15.7,10,15.7,10H0.3C0.2,10,0,9.9,0,9.7
			c0-0.1,0-0.2,0.1-0.2l7.7-9.3C7.9,0,8.1,0,8.3,0.1C8.2,0.1,8.3,0.1,8.3,0.1z"/>
	</g>
</g>
</svg>
