<?xml version="1.0" encoding="utf-8"?>
<!-- Generator: Adobe Illustrator 23.0.1, SVG Export Plug-In . SVG Version: 6.00 Build 0)  -->
<svg version="1.1" id="Arrow_x5F_down_x5F_icon" xmlns="http://www.w3.org/2000/svg" xmlns:xlink="http://www.w3.org/1999/xlink"
	 x="0px" y="0px" viewBox="0 0 16 10" style="enable-background:new 0 0 16 10;" xml:space="preserve">
<style type="text/css">
	.st0{fill-rule:evenodd;clip-rule:evenodd;fill:#BBBBBB;}
	.st1{fill-rule:evenodd;clip-rule:evenodd;}
</style>
<g id="Arrow_x5F_down_x5F_icon">
	<g>
		<path id="arrow_7_" class="st0" d="M7.7,9.9L0.1,0.5C0,0.4,0,0.2,0.1,0.1C0.2,0,0.3,0,0.3,0h15.4C15.8,0,16,0.1,16,0.3
			c0,0.1,0,0.2-0.1,0.2L8.2,9.9C8.1,10,7.9,10,7.7,9.9C7.8,9.9,7.7,9.9,7.7,9.9z"/>
	</g>
	<g>
		<path id="arrow_6_" class="st1" d="M7.7,9.9L0.1,0.5C0,0.4,0,0.2,0.1,0.1C0.2,0,0.3,0,0.3,0h15.4C15.8,0,16,0.1,16,0.3
			c0,0.1,0,0.2-0.1,0.2L8.2,9.9C8.1,10,7.9,10,7.7,9.9C7.8,9.9,7.7,9.9,7.7,9.9z"/>
	</g>
</g>
</svg>
