<?xml version="1.0" encoding="utf-8"?>
<!-- Generator: Adobe Illustrator 23.0.1, SVG Export Plug-In . SVG Version: 6.00 Build 0)  -->
<svg version="1.1" id="Search_x5F_icon" xmlns="http://www.w3.org/2000/svg" xmlns:xlink="http://www.w3.org/1999/xlink" x="0px"
	 y="0px" viewBox="0 0 20 20" style="enable-background:new 0 0 20 20;" xml:space="preserve">
<style type="text/css">
	.st0{fill-rule:evenodd;clip-rule:evenodd;}
</style>
<path id="Search" class="st0" d="M15,12.5l5,5L17.5,20l-5-5c-1.4,0.9-2.7,1.2-4.4,1.2C3.6,16.2,0,12.6,0,8.1S3.6,0,8.1,0
	s8.1,3.6,8.1,8.1C16.2,9.8,15.9,11.2,15,12.5z M13.8,8.1c0-3.1-2.5-5.6-5.6-5.6C5,2.5,2.5,5,2.5,8.1c0,3.1,2.5,5.6,5.6,5.6
	S13.8,11.2,13.8,8.1z"/>
</svg>
