<?xml version="1.0" encoding="utf-8"?>
<!-- Generator: Adobe Illustrator 23.0.1, SVG Export Plug-In . SVG Version: 6.00 Build 0)  -->
<svg version="1.1" id="Trash_x5F_icon" xmlns="http://www.w3.org/2000/svg" xmlns:xlink="http://www.w3.org/1999/xlink" x="0px"
	 y="0px" viewBox="0 0 18 20" style="enable-background:new 0 0 18 20;" xml:space="preserve">
<style type="text/css">
	.st0{fill-rule:evenodd;clip-rule:evenodd;}
</style>
<path id="Trash" class="st0" d="M10.8,16.2h1c0.3,0,0.5-0.2,0.5-0.5V7.3c0-0.3-0.2-0.5-0.5-0.5h-1c-0.3,0-0.5,0.2-0.5,0.5v8.4
	C10.3,16,10.5,16.2,10.8,16.2z M17.4,3.1H14l-1.4-2.2C12.3,0.3,11.7,0,11,0H7C6.3,0,5.7,0.3,5.3,0.9L4,3.1H0.6C0.3,3.1,0,3.4,0,3.8
	v0.6C0,4.7,0.3,5,0.6,5h0.6v13.1c0,1,0.9,1.9,1.9,1.9h11.6c1.1,0,1.9-0.8,1.9-1.9V5h0.6C17.7,5,18,4.7,18,4.4V3.8
	C18,3.4,17.7,3.1,17.4,3.1z M6.9,2c0-0.1,0.1-0.1,0.2-0.1h3.8c0.1,0,0.2,0,0.2,0.1l0.7,1.1H6.2L6.9,2z M14.8,18.1H3.2V5h11.6V18.1z
	 M6.3,16.2h1c0.3,0,0.5-0.2,0.5-0.5V7.3c0-0.3-0.2-0.5-0.5-0.5h-1C6,6.9,5.8,7.1,5.8,7.3v8.4C5.8,16,6,16.2,6.3,16.2z"/>
</svg>
